<?xml version="1.0" encoding="utf-8"?>
<!-- Generator: Adobe Illustrator 24.3.0, SVG Export Plug-In . SVG Version: 6.00 Build 0)  -->
<svg version="1.1" id="Layer_1" xmlns="http://www.w3.org/2000/svg" xmlns:xlink="http://www.w3.org/1999/xlink" x="0px" y="0px"
	 viewBox="0 0 26 26" style="enable-background:new 0 0 26 26;" xml:space="preserve">
<style type="text/css">
	.st0{fill:#B7C7E7;}
</style>
<g id="g186">
	<path id="path188" class="st0" d="M19.8,13.3c0-1.9,1-3.7,2.7-4.8c-1-1.5-2.7-2.4-4.5-2.5c-2-0.2-3.8,1.1-4.8,1.1S10.6,6.1,9,6.1
		C6.9,6.2,4.9,7.4,3.9,9.2c-2.2,3.8-0.6,9.5,1.6,12.6c1,1.5,2.3,3.2,4,3.2s2.2-1,4.1-1s2.5,1,4.1,1s2.8-1.5,3.8-3.1
		c0.7-1.1,1.3-2.3,1.7-3.6C21.2,17.5,19.9,15.5,19.8,13.3"/>
</g>
<path id="path190" class="st0" d="M14.2,4c0.9-1.1,1.4-2.5,1.3-4c-1.4,0.1-2.7,0.8-3.7,1.9c-0.9,1.1-1.4,2.4-1.3,3.9
	C11.9,5.8,13.3,5.1,14.2,4"/>
</svg>
