<?xml version="1.0" encoding="utf-8"?>
<!-- Generator: Adobe Illustrator 24.3.0, SVG Export Plug-In . SVG Version: 6.00 Build 0)  -->
<svg version="1.1" id="Layer_1" xmlns="http://www.w3.org/2000/svg" xmlns:xlink="http://www.w3.org/1999/xlink" x="0px" y="0px"
	 viewBox="0 0 26 26" style="enable-background:new 0 0 26 26;" xml:space="preserve">
<style type="text/css">
	.st0{fill:#B7C7E7;}
</style>
<path id="path80319" class="st0" d="M19.3,10.1l2.2-3.7c0.1-0.2,0-0.5-0.2-0.6c-0.2-0.1-0.5-0.1-0.6,0.2l-2.2,3.8
	C16.9,9,15,8.5,13,8.5c-2,0-3.9,0.4-5.6,1.2L5.3,5.9C5.1,5.7,4.9,5.6,4.7,5.8C4.4,5.9,4.4,6.2,4.5,6.4l2.2,3.7
	c-3.7,2-6.2,5.8-6.7,10.2h26C25.6,15.9,23.1,12.1,19.3,10.1z M7,16.6c-0.6,0-1.1-0.5-1.1-1.1c0-0.6,0.5-1.1,1.1-1.1
	c0.6,0,1.1,0.5,1.1,1.1C8.1,16.1,7.6,16.6,7,16.6z M19,16.6c-0.6,0-1.1-0.5-1.1-1.1c0-0.6,0.5-1.1,1.1-1.1c0.6,0,1.1,0.5,1.1,1.1
	C20.1,16.1,19.6,16.6,19,16.6z"/>
</svg>
