<svg xmlns="http://www.w3.org/2000/svg" viewBox="0 0 26 26">
  <path fill-rule="evenodd" d="M13 1.2C6.3 1.2.9 6.5.8 13.2c0 5.2 3.3 9.9 8.3 11.6.6.1.8-.3.8-.6v-2.1c-3.4.7-4.1-1.6-4.1-1.6-.2-.7-.7-1.4-1.3-1.8-1.1-.7.1-.7.1-.7.8.1 1.5.6 1.9 1.2.7 1.3 2.3 1.7 3.5 1 .1-.6.3-1.2.8-1.6-2.7-.3-5.6-1.3-5.6-6 0-1.2.4-2.3 1.3-3.2-.4-1-.3-2.2.1-3.2 0 0 1-.3 3.3 1.2 2-.5 4.1-.5 6.1 0 2.3-1.6 3.4-1.2 3.4-1.2.4 1 .5 2.2.1 3.2.8.9 1.3 2 1.2 3.2 0 4.6-2.9 5.6-5.6 6 .6.6.8 1.4.8 2.2v3.3c0 .4.2.7.8.6 6.3-2.1 9.8-8.9 7.7-15.2-1.5-4.9-6.2-8.3-11.4-8.3z" clip-rule="evenodd"/>
</svg>