<svg xmlns="http://www.w3.org/2000/svg" viewBox="0 0 356 281.02"><defs><style>.cls-1{fill:#19233e;opacity:0;}.cls-2{fill:#8b34c8;}.cls-3{fill:#505466;}</style></defs><g id="Layer_2" data-name="Layer 2"><g id="Layer_1-2" data-name="Layer 1"><rect class="cls-1" width="356" height="281.02"/><path class="cls-2" d="M224.17,175.14l-7.47-5.86a38.89,38.89,0,0,0,0-11.4l7.47-5.86a3.9,3.9,0,0,0,1-5l-9.23-16a3.89,3.89,0,0,0-4.82-1.67l-8.81,3.55a38.94,38.94,0,0,0-9.87-5.71l-1.34-9.4a3.89,3.89,0,0,0-3.84-3.34H168.77a3.89,3.89,0,0,0-3.84,3.34l-1.34,9.4a38.94,38.94,0,0,0-9.87,5.71l-8.81-3.55a3.89,3.89,0,0,0-4.82,1.67l-9.23,16a3.9,3.9,0,0,0,1,5l7.47,5.86a38.89,38.89,0,0,0,0,11.4l-7.47,5.86a3.88,3.88,0,0,0-1,5l9.23,16a3.9,3.9,0,0,0,4.82,1.66l8.81-3.54a39.2,39.2,0,0,0,9.87,5.7l1.34,9.4a3.88,3.88,0,0,0,3.84,3.34h18.46a3.88,3.88,0,0,0,3.84-3.34l1.34-9.4a39.2,39.2,0,0,0,9.87-5.7l8.81,3.54a3.9,3.9,0,0,0,4.82-1.66l9.23-16A3.88,3.88,0,0,0,224.17,175.14ZM178,181.07a17.5,17.5,0,1,1,17.5-17.49A17.5,17.5,0,0,1,178,181.07Z"/><path class="cls-3" d="M257.48,75.05h-4.91V62.32a23.41,23.41,0,0,0-28.45-22.86L104,66a44.12,44.12,0,0,0-28,19.63,29.11,29.11,0,0,0-6.75,18.66V222.89A29.24,29.24,0,0,0,98.52,252.1h159a29.24,29.24,0,0,0,29.22-29.21V104.27A29.25,29.25,0,0,0,257.48,75.05ZM226.69,51.11a11.21,11.21,0,0,1,2.5-.28,11.5,11.5,0,0,1,11.46,11.49V75.05H118.29Zm30.79,189.07h-159a17.32,17.32,0,0,1-17.3-17.29V104.27A17.32,17.32,0,0,1,98.52,87h159a17.32,17.32,0,0,1,17.3,17.3v40.85H263.67a15.33,15.33,0,0,0-15.33,15.33v6.25A15.33,15.33,0,0,0,263.67,182h11.11v40.86A17.32,17.32,0,0,1,257.48,240.18Z"/></g></g></svg>