<?xml version="1.0" encoding="utf-8"?>
<!-- Generator: Adobe Illustrator 24.3.0, SVG Export Plug-In . SVG Version: 6.00 Build 0)  -->
<svg version="1.1" id="Layer_1" xmlns="http://www.w3.org/2000/svg" xmlns:xlink="http://www.w3.org/1999/xlink" x="0px" y="0px"
	 viewBox="0 0 356 281" style="enable-background:new 0 0 356 281;" xml:space="preserve">
<style type="text/css">
	.st0{fill:#19233E;fill-opacity:0;}
	.st1{fill:#505466;}
	.st2{fill:#60C4CC;}
</style>
<rect class="st0" width="356" height="281"/>
<path class="st1" d="M178,72.7c-67.6,0-120.6,27.6-120.6,62.8v34c0,35.2,53,62.8,120.6,62.8s120.6-27.6,120.6-62.8v-34
	C298.6,100.3,245.6,72.7,178,72.7z M178,84.6c58.9,0,108.7,23.3,108.7,50.9s-49.8,50.9-108.7,50.9S69.3,163.1,69.3,135.5
	S119.1,84.6,178,84.6z"/>
<path class="st2" d="M247.1,88.4H108.9c-5.1,0.2-9.3-3.8-9.5-8.9c-0.2-5.1,3.8-9.3,8.9-9.5c0.2,0,0.4,0,0.6,0H225l-19.6-19.6
	c-3.6-3.6-3.6-9.4,0-13s9.4-3.6,13,0l35.2,35.2c3.6,3.6,3.6,9.4,0,13C251.9,87.4,249.6,88.4,247.1,88.4L247.1,88.4z M150.6,152.7
	c3.6-3.6,3.6-9.4,0-13c0,0,0,0,0,0L131,120.1h116c5.1,0.2,9.3-3.8,9.5-8.9c0.2-5.1-3.8-9.3-8.9-9.5c-0.2,0-0.4,0-0.6,0H108.9
	c-5.1,0-9.2,4.1-9.2,9.2c0,2.4,1,4.8,2.7,6.5l35.2,35.2C141.2,156.2,147,156.3,150.6,152.7C150.6,152.7,150.6,152.7,150.6,152.7
	L150.6,152.7z"/>
</svg>
