<svg xmlns="http://www.w3.org/2000/svg" viewBox="0 0 356 281.02"><defs><style>.cls-1{fill:#19233e;opacity:0;}.cls-2{fill:#505466;}.cls-3{fill:#339eff;}</style></defs><g id="Layer_2" data-name="Layer 2"><g id="Layer_1-2" data-name="Layer 1"><rect class="cls-1" width="356" height="281.02"/><path class="cls-2" d="M218,15.73H131.67a23.35,23.35,0,0,0-23.33,23.32V236.4a23.36,23.36,0,0,0,23.33,23.33H218a23.36,23.36,0,0,0,23.33-23.33V39.05A23.35,23.35,0,0,0,218,15.73Zm11.4,220.67A11.41,11.41,0,0,1,218,247.8H131.67a11.41,11.41,0,0,1-11.4-11.4V39.05a11.41,11.41,0,0,1,11.4-11.4h21.16V30.8a7.72,7.72,0,0,0,7.72,7.72h28.59a7.72,7.72,0,0,0,7.72-7.72V27.65H218a11.41,11.41,0,0,1,11.4,11.4Z"/><path class="cls-3" d="M80.36,228.25a9.17,9.17,0,0,1-7.12-15l35.78-44a9.18,9.18,0,0,1,14.75.7l9.6,14.41,38-46.86a9.18,9.18,0,0,1,15,1.09l9.68,16.27L271.29,59.3a9.18,9.18,0,0,1,14.42,11.35L202.23,176.71a9.17,9.17,0,0,1-15.09-1l-9.79-16.45L139.77,205.6a9.17,9.17,0,0,1-14.75-.7l-9.61-14.41L87.48,224.86A9.16,9.16,0,0,1,80.36,228.25Z"/></g></g></svg>