<svg xmlns="http://www.w3.org/2000/svg" viewBox="0 0 50 13">
  <path fill="#232C45" fill-rule="nonzero" d="M3.48 12l.942-6.293L6.873 12h1.131l2.581-6.293.942 6.293h2.828L12.499 1.067H9.686L7.511 6.896l-2.19-5.829H2.51L.652 12H3.48zm13.732-8.816c.202 0 .393-.039.572-.116a1.504 1.504 0 00.79-.79c.078-.18.116-.37.116-.573 0-.203-.038-.394-.116-.573a1.504 1.504 0 00-.79-.79 1.427 1.427 0 00-.572-.116c-.204 0-.394.039-.573.116a1.504 1.504 0 00-.79.79c-.078.18-.116.37-.116.573 0 .203.038.394.116.573a1.504 1.504 0 00.79.79c.179.077.37.116.573.116zM18.53 12V4.561h-2.624V12h2.624zm4.422 0V8.81c0-.696.153-1.225.457-1.588.305-.362.762-.544 1.37-.544.407 0 .783.087 1.131.261V4.431c-.106-.02-.2-.029-.282-.029h-.225c-.541 0-1.015.118-1.421.355-.406.237-.75.578-1.03 1.022V4.561H20.33V12h2.624zm6.758 0V8.81c0-.696.152-1.225.456-1.588.305-.362.761-.544 1.37-.544.407 0 .784.087 1.132.261V4.431c-.107-.02-.201-.029-.283-.029h-.225c-.541 0-1.015.118-1.421.355-.406.237-.75.578-1.03 1.022V4.561h-2.624V12h2.625zm8.322.276a5.46 5.46 0 001.806-.29 4.189 4.189 0 001.428-.82c.396-.353.708-.773.935-1.261.227-.488.341-1.027.341-1.617 0-.59-.111-1.129-.334-1.617a3.708 3.708 0 00-.935-1.261 4.397 4.397 0 00-1.42-.827 5.17 5.17 0 00-1.777-.297c-.648 0-1.245.101-1.79.304a4.412 4.412 0 00-1.414.834 3.793 3.793 0 00-.928 1.247 3.62 3.62 0 00-.334 1.544c0 .61.111 1.163.334 1.66.222.499.529.926.92 1.284.392.358.858.633 1.4.827.54.193 1.13.29 1.768.29zm.044-2.306c-.232 0-.452-.043-.66-.13a1.595 1.595 0 01-.536-.363 1.845 1.845 0 01-.363-.544 1.686 1.686 0 01-.138-.689c0-.232.046-.449.138-.652.092-.203.213-.382.363-.537.15-.154.328-.275.536-.362.208-.087.428-.13.66-.13.232 0 .452.043.66.13.208.087.386.208.536.362.15.155.27.336.363.544.092.208.137.428.137.66 0 .242-.045.466-.137.674-.092.208-.213.39-.363.544-.15.155-.328.276-.536.363-.208.087-.428.13-.66.13zM46.676 12V8.81c0-.696.152-1.225.456-1.588.305-.362.762-.544 1.37-.544.407 0 .783.087 1.131.261V4.431c-.106-.02-.2-.029-.282-.029h-.225c-.541 0-1.015.118-1.421.355-.406.237-.75.578-1.03 1.022V4.561h-2.624V12h2.624z"/>
</svg>