<svg xmlns="http://www.w3.org/2000/svg" viewBox="0 0 356 281.02"><defs><style>.cls-1{fill:#19233e;opacity:0;}.cls-2{fill:none;stroke:#505466;stroke-miterlimit:10;stroke-width:13px;}.cls-3{fill:#505466;}.cls-4{fill:#8b34c8;}</style></defs><g id="Layer_2" data-name="Layer 2"><g id="Layer_1-2" data-name="Layer 1"><rect class="cls-1" width="356" height="281.02"/><rect class="cls-2" x="75.97" y="79.43" width="204.06" height="163.99" rx="25.35" transform="translate(0.25 -0.27) rotate(0.09)"/><path class="cls-3" d="M264.57,143.23H280a0,0,0,0,1,0,0v36.66a0,0,0,0,1,0,0H264.57a16.71,16.71,0,0,1-16.71-16.71v-3.23A16.71,16.71,0,0,1,264.57,143.23Z" transform="translate(0.25 -0.4) rotate(0.09)"/><path class="cls-4" d="M223.83,173l-7.41-5.83a38.35,38.35,0,0,0,0-11.32l7.43-5.81a3.86,3.86,0,0,0,1-5l-9.14-15.89a3.87,3.87,0,0,0-4.78-1.66L202.16,131a39.14,39.14,0,0,0-9.79-5.68L191.05,116a3.85,3.85,0,0,0-3.81-3.32l-18.33,0a3.87,3.87,0,0,0-3.83,3.31l-1.34,9.34a38.5,38.5,0,0,0-9.8,5.65l-8.75-3.54a3.86,3.86,0,0,0-4.79,1.65l-9.19,15.85a3.85,3.85,0,0,0,1,5l7.41,5.83a38.41,38.41,0,0,0,0,11.33l-7.43,5.8a3.87,3.87,0,0,0-1,5l9.14,15.88a3.85,3.85,0,0,0,4.78,1.66l8.76-3.51a38.54,38.54,0,0,0,9.79,5.68l1.32,9.34a3.85,3.85,0,0,0,3.81,3.32l18.33,0a3.86,3.86,0,0,0,3.83-3.31l1.34-9.33a39.1,39.1,0,0,0,9.8-5.65l8.75,3.53a3.86,3.86,0,0,0,4.79-1.64l9.19-15.86A3.86,3.86,0,0,0,223.83,173ZM178,178.8a17.38,17.38,0,1,1,17.41-17.35A17.39,17.39,0,0,1,178,178.8Z"/><path class="cls-3" d="M91.82,84.13A32.15,32.15,0,0,1,107.24,76L226.53,49.8a11.56,11.56,0,0,1,2.48-.27A11.42,11.42,0,0,1,240.37,61l0,23.41,11.85,0,0-23.41A23.25,23.25,0,0,0,224,38.23L104.7,64.39a43.82,43.82,0,0,0-28,19.72Z"/></g></g></svg>