<svg xmlns="http://www.w3.org/2000/svg" viewBox="0 0 356 281.02"><defs><style>.cls-1,.cls-4{fill:#19233e;}.cls-1{opacity:0;}.cls-2{fill:#505466;}.cls-3,.cls-5{fill:#339eff;}.cls-5{opacity:0.4;}</style></defs><g id="Layer_2" data-name="Layer 2"><g id="Layer_1-2" data-name="Layer 1"><rect class="cls-1" width="356" height="281.02"/><path class="cls-2" d="M282.41,157.45l-34.56-53.62a5.92,5.92,0,0,0-5-2.72H113.13a5.92,5.92,0,0,0-5,2.72L73.59,157.45a6,6,0,0,0-.86,4.2L90,263.58a5.92,5.92,0,0,0,5.84,4.93h164.3a5.92,5.92,0,0,0,5.84-4.93l17.28-101.93A6,6,0,0,0,282.41,157.45Zm-166-44.5H239.64l26.93,41.79H89.43ZM255.15,256.67H100.85L85.58,166.58H270.42Z"/><circle class="cls-3" cx="178" cy="71.05" r="58.54"/><path class="cls-4" d="M178,121.51a50.46,50.46,0,1,1,50.46-50.46A50.52,50.52,0,0,1,178,121.51Zm0-90a39.53,39.53,0,1,0,39.52,39.52A39.58,39.58,0,0,0,178,31.53ZM160,54.91h8.53L178,70.14l9.46-15.23H196V88.52h-7.87V67.41L178,82.79h-.21l-10-15.23v21H160Z"/><path class="cls-3" d="M249.79,154.74a36.68,36.68,0,0,0-68.58,0Z"/><path class="cls-5" d="M175.19,146.6a30.56,30.56,0,1,0-60,8.14h58.89A30.36,30.36,0,0,0,175.19,146.6Z"/></g></g></svg>