<?xml version="1.0" encoding="utf-8"?>
<!-- Generator: Adobe Illustrator 24.3.0, SVG Export Plug-In . SVG Version: 6.00 Build 0)  -->
<svg version="1.1" id="Layer_1" xmlns="http://www.w3.org/2000/svg" xmlns:xlink="http://www.w3.org/1999/xlink" x="0px" y="0px"
	 viewBox="0 0 94 64" style="enable-background:new 0 0 94 64;" xml:space="preserve">
<style type="text/css">
	.st0{fill:#2C9FEF;}
</style>
<g id="Layer_2_1_">
	<g id="Layer_1-2">
		<path class="st0" d="M8.4,51.5C1,44,1.1,32,8.5,24.6c3.5-3.5,8.3-5.5,13.3-5.5h19.7c0.2,0,0.4-0.2,0.4-0.4c0-0.1-0.1-0.2-0.1-0.3
			l-8-6.1c-0.1-0.1-0.2-0.1-0.3-0.1c-0.2,0-0.4,0.2-0.4,0.4v4.3H21.8c-11.7,0-21.2,9.5-21.2,21.2s9.5,21.2,21.2,21.2h20.8v-2.2H21.8
			C16.8,57.1,11.9,55.1,8.4,51.5z M72.2,16.9H51.4v2.2h20.8c10.5,0.7,18.4,9.7,17.7,20.2c-0.6,9.5-8.2,17.1-17.7,17.7H52.5
			c-0.2,0-0.4,0.2-0.4,0.4c0,0.1,0.1,0.2,0.1,0.3l8,6.1c0.1,0.1,0.2,0.1,0.3,0.1c0.2,0,0.4-0.2,0.4-0.4v-4.3h11.4
			c11.7,0,21.2-9.5,21.2-21.2S83.9,16.9,72.2,16.9z M35.6,36.6c-0.2,1.2-0.2,2.5,0,3.7c0.1,0.6,0.2,1.2,0.4,1.8
			c0.2,0.6,0.4,1.1,0.7,1.7c0.5,1.1,1.2,2,2.1,2.8c0.4,0.4,0.9,0.8,1.3,1.1c0.4,0.3,0.7,0.5,1.1,0.7c0.3,0.2,0.7,0.4,1.1,0.4
			c0.2-1.2,0.2-2.4,0.2-3.6c-0.2-1.6-0.8-3.1-1.7-4.4c-0.2-0.4-1.3-2.1-2.1-3.2s-1.8-2.1-2.6-3.2l0,0l-0.1,0.3
			C35.9,35.4,35.7,36,35.6,36.6z M57,44.2c0.1-0.1,0-0.2-0.1-0.2c-0.1,0-0.2,0-0.3,0.1c0.2-0.3,0.3-0.7,0.5-1c0.2,0,0.5-0.1,0.7-0.3
			c0.5-1.3,0.8-2.8,0.8-4.2c0-3.3-1.4-6.5-3.9-8.7l-0.1-0.1c-2-1.6-4.4-2.5-6.9-2.5c-1.5,0-3,0.3-4.4,0.9l0,0c-0.1,0-0.2,0-0.4,0
			c-0.6,0-1.1,0.2-1.6,0.4c-0.3,0.2-0.6,0.4-0.9,0.6c-0.5,0.3-0.9,0.7-1.3,1.1c-0.8,0.8-1.6,1.8-2.1,2.9c0,0.1-0.1,0.1-0.1,0.2l0,0
			c1.3-0.1,2.6-0.4,3.8-1.1c0.4,0.7,1,1.2,1.6,1.6c-0.3,0.5-0.4,1.1-0.4,1.7c0.3,2.6,4.2,4.3,5.4,4.8h0.1c-0.6,0.4-1.2,0.9-1.7,1.5
			C45,42.9,44.8,44,45,45c0.6,2.3,2.9,4.3,4.3,4.3h0.1c0.5-0.1,1-0.2,1.5-0.4c0.5,0.2,1,0.1,1.4-0.1C54.3,47.7,55.9,46.1,57,44.2z
			 M42.6,33.2c-0.5-0.3-1-0.8-1.3-1.3l0,0c0.9-0.5,1.7-1.2,2.4-2c0.2-0.3,0.3-0.6,0.3-1c1.1-0.4,2.3-0.7,3.5-0.6c1.5,0,3,0.3,4.4,1
			C49.3,29.5,44.6,30.9,42.6,33.2L42.6,33.2z M50.5,47.8C50.5,47.9,50.5,47.9,50.5,47.8c-0.4,0.2-0.8,0.3-1.2,0.4
			c-0.8,0-2.8-1.5-3.3-3.6c-0.2-0.7-0.1-1.4,0.4-2c0.5-0.7,1.2-1.3,2-1.7c2.5,0.9,5,1.6,7.6,2c-0.1,0.3-0.3,0.5-0.4,0.8
			c-0.2,0.2-0.3,0.5-0.5,0.7C53.3,45.3,50.9,46.6,50.5,47.8L50.5,47.8z"/>
	</g>
</g>
</svg>
