<?xml version="1.0" encoding="utf-8"?>
<!-- Generator: Adobe Illustrator 24.3.0, SVG Export Plug-In . SVG Version: 6.00 Build 0)  -->
<svg version="1.1" id="Layer_1" xmlns="http://www.w3.org/2000/svg" xmlns:xlink="http://www.w3.org/1999/xlink" x="0px" y="0px"
	 viewBox="0 0 94 64" style="enable-background:new 0 0 94 64;" xml:space="preserve">
<style type="text/css">
	.st0{fill-rule:evenodd;clip-rule:evenodd;fill:#2C9FEF;}
</style>
<g id="Layer_2_1_">
	<g id="Layer_1-2">
		<path class="st0" d="M43.8,9.9c1.3,1.3,2.6,2.7,3.7,4.3c3.7,4.8,5.2,6.1,8.4,7.1c2.2,0.6,4.6,1,6.9,1c3.6,0.2,5,0.5,6.3,1.3
			c0.7,0.5,1.4,1.1,1.8,1.9l0.3,0.5l-0.1-0.5c-0.6-2.7-1.8-5.2-3.7-7.2L67,17.9l-0.2,0.8c-0.4,2-1.4,3.4-2.3,3.4
			c-0.4,0-0.8-0.3-1-0.6c-0.2-0.5-0.2-0.6,0.1-1.2c0.6-1.3,0.7-2.7,0.4-4.1c0-0.3-0.1-0.7-0.3-1c-0.9-0.6-1.8-1.1-2.7-1.6
			c-3.8-1.7-8-2.2-12.1-1.6l-1,0.1l-0.7-0.8c-2.6-2.9-5.1-4.5-7.8-5.2C38.4,6,37.2,5.9,36,6c-0.4,0.1-0.3,0.1,0.5,0.2
			C39.2,6.6,41.8,7.9,43.8,9.9z M62.6,12.3c2.3,1.3,2.7,2.1,2.7,5.4c0.1,0.8,0,1.5-0.2,2.3c-0.3,0.6-0.2,0.8,0.1,0.2
			c0.6-1.2,0.9-2.5,0.8-3.8c0-1.1,0-1.3,0.2-1.4s0.2-0.2,0.5,0c1.1,0.7,2.1,1.5,3,2.4l0.6,0.6l-0.6-0.8c-0.4-0.5-1.3-1.5-2.2-2.4
			c-1.8-1.8-1.9-2.1-2.2-3.8C65,9.8,65,8.7,65.3,7.6c0.1-0.2,0.1-0.4,0.2-0.6c-0.1,0.2-0.2,0.4-0.3,0.6c-0.4,1-0.7,2.1-0.7,3.2
			c-0.1,0.9-0.1,1.2-0.2,1.3s-0.4,0-1.7-0.5c-1-0.4-2.1-0.7-3.2-0.9c0.3,0.2,0.7,0.4,1,0.5C61,11.5,62,12,62.6,12.3z M42.6,19.6
			c0.9,0.1,1.2-0.2,0.8-0.8c-0.6-0.9-1.1-1.8-1.5-2.7c-0.1-0.3-0.4-1.4-0.6-2.3c-0.7-3.1-1.3-4.3-2.8-5.2c-0.8-0.4-1.6-0.7-2.5-0.9
			l-0.4-0.1l-0.1,0.8c-0.1,2.9,0.7,5.7,2.4,8.1C39.2,18.2,41.1,19.5,42.6,19.6L42.6,19.6z M74.9,34.4c-0.7-4.2-3.5-7.2-8.1-8.7
			c-1.9-0.6-3.8-1-5.8-1.2c-4.7-0.7-6.4-1.2-7.9-2.4c-0.2-0.2-0.4-0.3-0.6-0.5c0,0.4,0,0.8,0,1.2c0,4.4,2.6,7,10.1,10
			c5,2,7,3,8.5,4.3c1.3,1,2.1,2.6,2.2,4.2c0,0.3,0.1,0.5,0.1,0.5c0.5-0.8,0.9-1.8,1.2-2.7C75,37.6,75.1,36,74.9,34.4z M52.4,41.5
			C52,41.7,50.5,42,49,42.2c-1.9,0.2-3.9,0.7-5.7,1.5c-0.7,0.3-1.4,0.7-2,1.2c0.2,0,0.3,0,0.5-0.1c2.1-0.6,4.2-1,6.4-1
			c1.1,0,2.4-0.2,2.9-0.2c2.1-0.1,4.1-1,5.7-2.5c0.7-0.7,1.3-1.5,1.6-2.5c0.2-0.6,0.3-1.3,0.3-2c0.1-0.7,0-1.4-0.3-2.1
			c-0.3-0.8-0.7-1.5-1.2-2.2l-0.3-0.4l0.2,0.6c0.1,0.5,0.3,1,0.3,1.5C57.9,37.6,56.1,40.4,52.4,41.5z M70.6,40.5
			c-1.2-1.5-2.9-2.8-6-4.4c-2.5-1.3-3.4-1.8-3.8-2.2c-0.2-0.1-0.3-0.2-0.5-0.3c-0.1,0-0.2,0.2-0.2,0.4c-0.5,2-0.3,4.2,0.7,6.1
			c0.9,1.7,1.9,3.3,3,4.9c1.2,1.7,2.2,3.5,3,5.4c0.7,1.9,0.6,4-0.3,5.8c-0.2,0.3-0.3,0.5-0.3,0.8c0.3-0.1,0.5-0.2,0.8-0.4
			c2.8-1.5,4.7-4.1,5.5-7.2c0.3-1.5,0.4-2.9,0.3-4.4C72.4,43.3,71.7,41.8,70.6,40.5z M55.4,60.6c-0.9-0.8-1.5-1.8-1.7-3
			c0-0.2-0.2-1.3-0.4-2.3c-0.1-1.8-0.7-3.6-1.7-5.1c-1.2-1.5-2.9-2.6-4.8-3c-1.6-0.3-3.3-0.4-4.9-0.2c-3.5,0.7-6.7,2.2-9.4,4.5
			l-0.8,0.7l0.7,0.1c3.8,0.6,4.8,1.1,7.5,3.8c1.5,1.5,2,1.9,3.3,2.2c1.7,0.5,3.6-0.3,4.3-2c0.3-0.8,0.2-1.7-0.1-2.5
			c-0.8-1.3-2.4-1.8-3.7-1c-0.1,0.1-0.2,0.1-0.3,0.2c-0.6,0.5-0.7,1.3-0.3,1.9c0.2,0.3,0.5,0.4,0.8,0.5c0.2,0,0.2,0-0.1-0.1
			c-0.4-0.1-0.7-0.5-0.7-1c0.1-0.9,0.9-1.6,1.8-1.5c0.2,0,0.5,0.1,0.7,0.2c0.8,0.2,1.3,1,1.2,1.8c0,1.3-1,2.3-2.3,2.3
			c-0.1,0-0.2,0-0.3,0c-0.8-0.1-1.6-0.5-2.2-1.1c-1-1.2-0.9-3,0.3-4c0.2-0.2,0.4-0.3,0.7-0.4c1.4-0.6,3.1-0.5,4.4,0.4
			c1.5,1,2.2,1.9,3.5,5c0.4,0.8,0.8,1.7,1.2,2.5c0.9,1.7,2.7,2.7,4.6,2.8c0.9,0,1.9-0.2,2.7-0.7c0.6-0.3,1.2-0.6,1.6-1.1
			c-0.2,0-0.4,0.1-0.7,0.2C58.6,61.5,56.6,61.4,55.4,60.6z M33.3,46.5c0.1-0.5,0-1.1-0.3-1.6c-0.6-1.1-1.6-2-2.6-2.6
			c-2-1.4-2.9-2.5-3.1-4c-0.2-1.3,0-2.2,1.2-4.5c1-1.8,1.6-3.8,1.6-5.9c0.1-1.6,0.3-2.2,0.8-2.7c0.6-0.6,1.3-0.9,2.1-0.9
			c1.5-0.1,3-0.7,4.2-1.7c0.8-0.7,1.3-1.7,1.3-2.7v-0.9L38,18.5c-1.8-2-18.9-16.7-19-16.7s0.6,0.7,1.3,1.6
			c8.8,10.6,14.9,15,15.5,15.9c0.6,0.8,0.3,1.5-0.6,2c-0.7,0.3-1.4,0.5-2.2,0.6c-0.3,0-0.6-0.1-0.8-0.2c-0.4-0.3-0.6-0.3-2.4-3.5
			c-2.5-3.9-4.7-7.2-4.7-7.2s-0.1-0.1,4.5,8.1c0.4,0.8,0.5,1.7,0.1,2.6c0,0.5-0.1,0.8-0.8,1.4c-1,1.1-1.5,2.4-1.8,5
			c-0.4,3-1.4,5.1-4.3,8.6c-0.9,1-1.7,2.1-2.4,3.3c-0.5,0.9-0.8,2-0.8,3c-0.1,1.3,0.1,2.5,0.5,3.7c0.4,1.3,1,2.5,1.8,3.6
			c0.6,0.8,1.1,1.8,1.4,2.8c0,0.3,0.1,0.3,1.4,0c3.3-0.7,5.9-2,7.4-3.6C33,48.6,33.4,47.5,33.3,46.5z M24.3,44.5
			c-0.2,0.6-0.9,0.8-1.4,0.6c-0.1,0-0.1-0.1-0.2-0.1c-0.3-0.2-0.4-0.6-0.1-1s0.3-0.6-0.1-0.8c-0.2-0.1-0.3-0.2-0.3-0.4
			c0-0.5,1-0.7,1.6-0.3C24.5,42.9,24.7,43.8,24.3,44.5L24.3,44.5z M43.7,27.7c0-1.2-0.6-2.2-1.7-2.7c-0.7-0.3-1.5-0.4-2.3-0.2
			c-1,0.4-1.8,1.2-2.1,2.2c-0.2,0.7-0.1,1.4,0.2,2c0.4,0.5,0.8,0.7,1.8,0.7C41.7,29.7,43.5,28.8,43.7,27.7L43.7,27.7z M42,26.7
			c-0.4,0.4-0.9,0.6-1.4,0.6c-0.7,0-1.5-0.5-1.5-1c0-1,1.5-1.5,2.6-0.9C42.2,25.7,42.4,26.2,42,26.7L42,26.7z"/>
	</g>
</g>
</svg>
