<?xml version="1.0" encoding="utf-8"?>
<!-- Generator: Adobe Illustrator 24.3.0, SVG Export Plug-In . SVG Version: 6.00 Build 0)  -->
<svg version="1.1" id="Layer_1" xmlns="http://www.w3.org/2000/svg" xmlns:xlink="http://www.w3.org/1999/xlink" x="0px" y="0px"
	 viewBox="0 0 94 64" style="enable-background:new 0 0 94 64;" xml:space="preserve">
<style type="text/css">
	.st0{fill:#2C9FEF;}
</style>
<g id="Layer_2_1_">
	<g id="Layer_1-2">
		<path class="st0" d="M90.8,52.2h-7.6V10.5c0-1.5-1.2-2.8-2.8-2.8H13.6c-1.5,0-2.8,1.2-2.8,2.8v41.7H3.2c-0.4,0-0.7,0.3-0.7,0.7
			v0.7c0,1.5,1.2,2.8,2.8,2.8h83.4c1.5,0,2.8-1.2,2.8-2.8v-0.7C91.5,52.5,91.2,52.2,90.8,52.2z M52.6,53.5H41.4
			c-1.5,0-2.1-0.6-2.1-1.4h15.3C54.6,52.9,54.1,53.5,52.6,53.5z M80.4,49.4H13.6V10.5h66.7V49.4z M43.9,42.1l3.8,0.9v-4.4l3.8,0.9
			v-4.4l3.8,0.9V21.9L51.6,21v-4.4l-3.8-0.9v4.4l-3.8-0.9v4.4l-3.8-0.9v14.1l3.8,0.9L43.9,42.1z M43.2,34.6v-8.3l5.3,1.3v8.3
			L43.2,34.6z"/>
	</g>
</g>
</svg>
