<?xml version="1.0" encoding="utf-8"?>
<!-- Generator: Adobe Illustrator 24.3.0, SVG Export Plug-In . SVG Version: 6.00 Build 0)  -->
<svg version="1.1" id="Layer_1" xmlns="http://www.w3.org/2000/svg" xmlns:xlink="http://www.w3.org/1999/xlink" x="0px" y="0px"
	 viewBox="0 0 94 64" style="enable-background:new 0 0 94 64;" xml:space="preserve">
<style type="text/css">
	.st0{fill-rule:evenodd;clip-rule:evenodd;fill:#2C9FEF;}
</style>
<g id="mETH">
	<g id="mETH---Stake-_x28_unconnected_x2C_-no-rewards_x29_" transform="translate(-180.000000, -20.000000)">
		<g id="Group-3" transform="translate(180.000000, 20.000000)">
			<path id="Fill-1" class="st0" d="M56.7,41.4l-8.1-27.2l7.3,6.6L61.3,32L56.7,41.4z M47,61.4L40,47l6.5,5.8c0,0,0,0,0,0
				c0.1,0.1,0.1,0.1,0.2,0.1c0,0,0,0,0,0c0,0,0,0,0,0c0,0,0,0,0.1,0c0.1,0,0.1,0,0.2,0c0.1,0,0.2,0,0.3,0c0,0,0,0,0,0c0,0,0,0,0,0
				c0,0,0,0,0,0c0.1,0,0.1-0.1,0.2-0.1c0,0,0,0,0,0L54,47L47,61.4z M47,2.6L54,17l-6.5-5.8c0,0,0,0,0,0c0,0,0,0-0.1,0c0,0,0,0-0.1,0
				c0,0,0,0-0.1,0c0,0,0,0,0,0c0,0,0,0,0,0c0,0,0,0-0.1,0h0c0,0-0.1,0-0.1,0c0,0,0,0-0.1,0c0,0,0,0-0.1,0c0,0,0,0,0,0c0,0,0,0-0.1,0
				c0,0,0,0,0,0c0,0,0,0,0,0c0,0,0,0,0,0c0,0,0,0,0,0c0,0-0.1,0-0.1,0c0,0,0,0-0.1,0c0,0,0,0-0.1,0c0,0,0,0,0,0c0,0,0,0,0,0
				c0,0,0,0,0,0c0,0,0,0-0.1,0L40,17L47,2.6z M46.2,39.7v10.8l-8.1-7.3l-4.6-9.5L46.2,39.7z M38.1,20.8l5.7-5.2l2.3-2.1v24.4
				l-1.6-0.7l-11.7-5.5L38.1,20.8z M47.8,38.6V17.2l7.4,24.9L47.8,38.6z M47.8,40.4l7.3,3.4l-7.3,6.6V40.4z M62.9,31.6L57.2,20
				L47.7,0.4c-0.3-0.6-1.2-0.6-1.4,0L36.8,20l-5.7,11.6v0l0,0c0,0,0,0,0,0c0,0.1-0.1,0.2-0.1,0.3c0,0,0,0.1,0,0.1c0,0.1,0,0.1,0,0.2
				c0,0,0,0,0,0.1c0,0,0,0,0,0c0,0,0,0,0,0.1L36.8,44l9.5,19.6c0.1,0.3,0.4,0.5,0.7,0.5c0.3,0,0.6-0.2,0.7-0.5L57.2,44l5.7-11.7
				C63,32.1,63,31.9,62.9,31.6L62.9,31.6z"/>
		</g>
	</g>
</g>
</svg>
