<?xml version="1.0" encoding="utf-8"?>
<!-- Generator: Adobe Illustrator 24.3.0, SVG Export Plug-In . SVG Version: 6.00 Build 0)  -->
<svg version="1.1" id="Layer_1" xmlns="http://www.w3.org/2000/svg" xmlns:xlink="http://www.w3.org/1999/xlink" x="0px" y="0px"
	 viewBox="0 0 94 64" style="enable-background:new 0 0 94 64;" xml:space="preserve">
<style type="text/css">
	.st0{fill:#2C9FEF;}
</style>
<g id="Layer_2_1_">
	<g id="Layer_1-2">
		<path class="st0" d="M61.5,0h-29C28.9,0,26,2.9,26,6.5v51c0,3.6,2.9,6.5,6.5,6.5h29c3.6,0,6.5-2.9,6.5-6.5v-51
			C68,2.9,65.1,0,61.5,0z M65.4,57.8c0,2-1.6,3.5-3.5,3.5H32.2c-2,0-3.5-1.6-3.5-3.5V6.2c0-1.9,1.6-3.5,3.5-3.5h4
			c0.3,0,0.5,0.2,0.5,0.5c0,0,0,0,0,0v0.2c0,1.2,1,2.1,2.1,2.1h16.5c1.2,0,2.1-1,2.1-2.1V3.1c0-0.3,0.2-0.5,0.5-0.5l0,0h4
			c1.9,0,3.5,1.6,3.5,3.5V57.8z M50.7,19.1l-4-0.9v4.6l-4-0.9v4.6l-4-0.9v14.7l4,1v4.5l4,1V42l4,1v-4.6l4,1V24.6l-4-1V19.1z
			 M47.5,39.1L42,37.8v-8.6l5.6,1.3L47.5,39.1z"/>
	</g>
</g>
</svg>
