<?xml version="1.0" encoding="utf-8"?>
<!-- Generator: Adobe Illustrator 24.3.0, SVG Export Plug-In . SVG Version: 6.00 Build 0)  -->
<svg version="1.1" id="Layer_1" xmlns="http://www.w3.org/2000/svg" xmlns:xlink="http://www.w3.org/1999/xlink" x="0px" y="0px"
	 viewBox="0 0 840 240" style="enable-background:new 0 0 840 240;" xml:space="preserve">
<g>
	<defs>
		<path id="SVGID_1_" d="M199.5,202.3L224.1,64h37.3l29.1,73.7L319.4,64h37.3l24.6,138.3h-37.5l-12.5-79.6L297,202.3h-15l-32.5-79.6
			L237,202.3H199.5z M397.7,72.1c0-2.6,0.5-5,1.5-7.2c1-2.3,2.4-4.2,4.2-6c1.8-1.7,3.9-3.1,6.2-4c2.4-1,4.9-1.5,7.6-1.5
			c2.7,0,5.2,0.5,7.6,1.5c2.4,1,4.5,2.3,6.3,4c1.8,1.7,3.2,3.7,4.2,6c1,2.3,1.5,4.7,1.5,7.2c0,2.6-0.5,5-1.5,7.2
			c-1,2.3-2.4,4.2-4.2,6c-1.8,1.7-3.9,3.1-6.3,4c-2.4,1-4.9,1.5-7.6,1.5c-2.7,0-5.2-0.5-7.6-1.5c-2.4-1-4.5-2.3-6.2-4
			c-1.8-1.7-3.2-3.7-4.2-6C398.2,77.1,397.7,74.6,397.7,72.1z M400,202.3h34.8v-94.1H400V202.3z M456.8,108.2h34.8v15.4
			c3.7-5.6,8.3-9.9,13.7-12.9c5.4-3,11.7-4.5,18.9-4.5h3c1.1,0,2.3,0.1,3.8,0.4v31.7c-4.6-2.2-9.6-3.3-15-3.3
			c-8.1,0-14.1,2.3-18.2,6.9c-4,4.6-6.1,11.3-6.1,20.1v40.4h-34.8V108.2z M544.5,108.2h34.8v15.4c3.7-5.6,8.3-9.9,13.7-12.9
			c5.4-3,11.7-4.5,18.9-4.5h3c1.1,0,2.3,0.1,3.8,0.4v31.7c-4.6-2.2-9.6-3.3-15-3.3c-8.1,0-14.1,2.3-18.2,6.9
			c-4,4.6-6.1,11.3-6.1,20.1v40.4h-34.8V108.2z M629.2,154.4c0-7,1.5-13.5,4.4-19.5c3-6.1,7.1-11.3,12.3-15.8
			c5.3-4.5,11.5-8,18.8-10.6c7.2-2.6,15.2-3.8,23.8-3.8c8.5,0,16.3,1.3,23.6,3.8c7.2,2.5,13.5,6,18.9,10.5c5.3,4.5,9.5,9.8,12.4,16
			s4.4,13,4.4,20.5c0,7.5-1.5,14.3-4.5,20.4c-3,6.2-7.2,11.5-12.4,16c-5.3,4.5-11.6,7.9-19,10.4c-7.4,2.4-15.4,3.7-24,3.7
			c-8.5,0-16.3-1.2-23.5-3.7c-7.2-2.5-13.4-5.9-18.6-10.5c-5.2-4.5-9.3-9.9-12.2-16.2C630.7,169.1,629.2,162.1,629.2,154.4z
			 M666,154.8c0,3.2,0.6,6.1,1.8,8.7c1.2,2.6,2.8,4.9,4.8,6.9c2,2,4.4,3.5,7.1,4.6c2.8,1.1,5.7,1.7,8.8,1.7c3.1,0,6-0.6,8.8-1.7
			c2.8-1.1,5.1-2.6,7.1-4.6c2-2,3.6-4.2,4.8-6.9c1.2-2.6,1.8-5.5,1.8-8.5c0-2.9-0.6-5.7-1.8-8.3c-1.2-2.6-2.8-4.9-4.8-6.9
			c-2-1.9-4.4-3.5-7.1-4.6c-2.8-1.1-5.7-1.7-8.8-1.7c-3.1,0-6,0.6-8.8,1.7c-2.8,1.1-5.1,2.6-7.1,4.6c-2,2-3.6,4.2-4.8,6.8
			C666.6,149.1,666,151.9,666,154.8z M765.9,108.2h34.8v15.4c3.7-5.6,8.3-9.9,13.7-12.9c5.4-3,11.7-4.5,18.9-4.5h3
			c1.1,0,2.3,0.1,3.8,0.4v31.7c-4.6-2.2-9.6-3.3-15-3.3c-8.1,0-14.1,2.3-18.2,6.9c-4,4.6-6.1,11.3-6.1,20.1v40.4h-34.8V108.2z
			 M101.1,46.5V8L67.4,0v38.5l-33.7-8v38.5L0,61v124.4l33.7,8V232l33.7,8v-38.5l33.7,8v-38.5l33.7,8V54.5L101.1,46.5z M74.1,177.4
			L27,166.2v-73l47.2,11.2V177.4z"/>
	</defs>
	<use xlink:href="#SVGID_1_"  style="overflow:visible;fill-rule:evenodd;clip-rule:evenodd;fill:#172340;"/>
	<clipPath id="SVGID_2_">
		<use xlink:href="#SVGID_1_"  style="overflow:visible;"/>
	</clipPath>
</g>
</svg>
